<mxfile host="app.diagrams.net" modified="2023-08-16T13:48:28.968Z" agent="Mozilla/5.0 (Windows NT 10.0; Win64; x64) AppleWebKit/537.36 (KHTML, like Gecko) Chrome/115.0.0.0 Safari/537.36" etag="u5HG_V6SQM16VL6sYuJ1" version="21.6.8" type="github">
  <diagram name="Page-1" id="b520641d-4fe3-3701-9064-5fc419738815">
    <mxGraphModel dx="266" dy="390" grid="1" gridSize="10" guides="1" tooltips="1" connect="1" arrows="1" fold="1" page="1" pageScale="1" pageWidth="1100" pageHeight="850" background="none" math="0" shadow="0">
      <root>
        <mxCell id="0" />
        <mxCell id="1" parent="0" />
        <mxCell id="RNBmC7v_2YCIgV9TNYOe-24" style="edgeStyle=orthogonalEdgeStyle;rounded=0;orthogonalLoop=1;jettySize=auto;html=1;exitX=1;exitY=0.5;exitDx=0;exitDy=0;" edge="1" parent="1" source="21ea969265ad0168-6">
          <mxGeometry relative="1" as="geometry">
            <mxPoint x="270" y="105" as="targetPoint" />
          </mxGeometry>
        </mxCell>
        <mxCell id="RNBmC7v_2YCIgV9TNYOe-25" style="edgeStyle=orthogonalEdgeStyle;rounded=0;orthogonalLoop=1;jettySize=auto;html=1;exitX=1;exitY=0.5;exitDx=0;exitDy=0;entryX=0;entryY=0.5;entryDx=0;entryDy=0;" edge="1" parent="1" source="21ea969265ad0168-6" target="RNBmC7v_2YCIgV9TNYOe-9">
          <mxGeometry relative="1" as="geometry" />
        </mxCell>
        <mxCell id="RNBmC7v_2YCIgV9TNYOe-26" style="edgeStyle=orthogonalEdgeStyle;rounded=0;orthogonalLoop=1;jettySize=auto;html=1;exitX=1;exitY=0.5;exitDx=0;exitDy=0;entryX=0;entryY=0.5;entryDx=0;entryDy=0;" edge="1" parent="1" source="21ea969265ad0168-6" target="RNBmC7v_2YCIgV9TNYOe-19">
          <mxGeometry relative="1" as="geometry" />
        </mxCell>
        <mxCell id="21ea969265ad0168-6" value="FEETFIT(core app)" style="swimlane;html=1;fontStyle=0;childLayout=stackLayout;horizontal=1;startSize=26;fillColor=#e0e0e0;horizontalStack=0;resizeParent=1;resizeLast=0;collapsible=1;marginBottom=0;swimlaneFillColor=#ffffff;align=center;rounded=1;shadow=0;comic=0;labelBackgroundColor=none;strokeWidth=1;fontFamily=Verdana;fontSize=12" parent="1" vertex="1">
          <mxGeometry width="220" height="210" as="geometry" />
        </mxCell>
        <mxCell id="RNBmC7v_2YCIgV9TNYOe-9" value="templates" style="swimlane;html=1;fontStyle=0;childLayout=stackLayout;horizontal=1;startSize=26;fillColor=#e0e0e0;horizontalStack=0;resizeParent=1;resizeLast=0;collapsible=1;marginBottom=0;swimlaneFillColor=#ffffff;align=center;rounded=1;shadow=0;comic=0;labelBackgroundColor=none;strokeWidth=1;fontFamily=Verdana;fontSize=12" vertex="1" parent="1">
          <mxGeometry x="270" y="20" width="100" height="40" as="geometry" />
        </mxCell>
        <mxCell id="RNBmC7v_2YCIgV9TNYOe-14" style="edgeStyle=orthogonalEdgeStyle;rounded=0;orthogonalLoop=1;jettySize=auto;html=1;exitX=1;exitY=0.5;exitDx=0;exitDy=0;" edge="1" parent="RNBmC7v_2YCIgV9TNYOe-9">
          <mxGeometry relative="1" as="geometry">
            <mxPoint x="100" y="65" as="sourcePoint" />
            <mxPoint x="100" y="65" as="targetPoint" />
          </mxGeometry>
        </mxCell>
        <mxCell id="RNBmC7v_2YCIgV9TNYOe-16" value="views" style="swimlane;html=1;fontStyle=0;childLayout=stackLayout;horizontal=1;startSize=26;fillColor=#e0e0e0;horizontalStack=0;resizeParent=1;resizeLast=0;collapsible=1;marginBottom=0;swimlaneFillColor=#ffffff;align=center;rounded=1;shadow=0;comic=0;labelBackgroundColor=none;strokeWidth=1;fontFamily=Verdana;fontSize=12" vertex="1" parent="1">
          <mxGeometry x="270" y="85" width="100" height="40" as="geometry" />
        </mxCell>
        <mxCell id="RNBmC7v_2YCIgV9TNYOe-17" style="edgeStyle=orthogonalEdgeStyle;rounded=0;orthogonalLoop=1;jettySize=auto;html=1;exitX=1;exitY=0.5;exitDx=0;exitDy=0;" edge="1" parent="RNBmC7v_2YCIgV9TNYOe-16">
          <mxGeometry relative="1" as="geometry">
            <mxPoint x="100" y="65" as="sourcePoint" />
            <mxPoint x="100" y="65" as="targetPoint" />
          </mxGeometry>
        </mxCell>
        <mxCell id="RNBmC7v_2YCIgV9TNYOe-19" value="settings" style="swimlane;html=1;fontStyle=0;childLayout=stackLayout;horizontal=1;startSize=26;fillColor=#e0e0e0;horizontalStack=0;resizeParent=1;resizeLast=0;collapsible=1;marginBottom=0;swimlaneFillColor=#ffffff;align=center;rounded=1;shadow=0;comic=0;labelBackgroundColor=none;strokeWidth=1;fontFamily=Verdana;fontSize=12" vertex="1" parent="1">
          <mxGeometry x="270" y="150" width="100" height="40" as="geometry" />
        </mxCell>
        <mxCell id="RNBmC7v_2YCIgV9TNYOe-20" style="edgeStyle=orthogonalEdgeStyle;rounded=0;orthogonalLoop=1;jettySize=auto;html=1;exitX=1;exitY=0.5;exitDx=0;exitDy=0;" edge="1" parent="RNBmC7v_2YCIgV9TNYOe-19">
          <mxGeometry relative="1" as="geometry">
            <mxPoint x="100" y="65" as="sourcePoint" />
            <mxPoint x="100" y="65" as="targetPoint" />
          </mxGeometry>
        </mxCell>
        <mxCell id="RNBmC7v_2YCIgV9TNYOe-42" style="edgeStyle=orthogonalEdgeStyle;rounded=0;orthogonalLoop=1;jettySize=auto;html=1;exitX=1;exitY=0.5;exitDx=0;exitDy=0;" edge="1" parent="1" source="RNBmC7v_2YCIgV9TNYOe-27">
          <mxGeometry relative="1" as="geometry">
            <mxPoint x="240" y="405" as="targetPoint" />
          </mxGeometry>
        </mxCell>
        <mxCell id="RNBmC7v_2YCIgV9TNYOe-27" value="MENU(sub app)" style="swimlane;html=1;fontStyle=0;childLayout=stackLayout;horizontal=1;startSize=26;fillColor=#e0e0e0;horizontalStack=0;resizeParent=1;resizeLast=0;collapsible=1;marginBottom=0;swimlaneFillColor=#ffffff;align=center;rounded=1;shadow=0;comic=0;labelBackgroundColor=none;strokeWidth=1;fontFamily=Verdana;fontSize=12" vertex="1" parent="1">
          <mxGeometry y="300" width="220" height="210" as="geometry" />
        </mxCell>
        <mxCell id="RNBmC7v_2YCIgV9TNYOe-28" style="edgeStyle=orthogonalEdgeStyle;rounded=0;orthogonalLoop=1;jettySize=auto;html=1;exitX=1;exitY=0.5;exitDx=0;exitDy=0;" edge="1" parent="1">
          <mxGeometry relative="1" as="geometry">
            <mxPoint x="380" y="95" as="sourcePoint" />
            <mxPoint x="380" y="95" as="targetPoint" />
          </mxGeometry>
        </mxCell>
        <mxCell id="RNBmC7v_2YCIgV9TNYOe-29" style="edgeStyle=orthogonalEdgeStyle;rounded=0;orthogonalLoop=1;jettySize=auto;html=1;exitX=1;exitY=0.5;exitDx=0;exitDy=0;" edge="1" parent="1">
          <mxGeometry relative="1" as="geometry">
            <mxPoint x="380" y="160" as="sourcePoint" />
            <mxPoint x="380" y="160" as="targetPoint" />
          </mxGeometry>
        </mxCell>
        <mxCell id="RNBmC7v_2YCIgV9TNYOe-30" style="edgeStyle=orthogonalEdgeStyle;rounded=0;orthogonalLoop=1;jettySize=auto;html=1;exitX=1;exitY=0.5;exitDx=0;exitDy=0;" edge="1" parent="1">
          <mxGeometry relative="1" as="geometry">
            <mxPoint x="380" y="225" as="sourcePoint" />
            <mxPoint x="380" y="225" as="targetPoint" />
          </mxGeometry>
        </mxCell>
        <mxCell id="RNBmC7v_2YCIgV9TNYOe-31" value="category" style="swimlane;html=1;fontStyle=0;childLayout=stackLayout;horizontal=1;startSize=26;fillColor=#e0e0e0;horizontalStack=0;resizeParent=1;resizeLast=0;collapsible=1;marginBottom=0;swimlaneFillColor=#ffffff;align=center;rounded=1;shadow=0;comic=0;labelBackgroundColor=none;strokeWidth=1;fontFamily=Verdana;fontSize=12" vertex="1" parent="1">
          <mxGeometry x="380" y="330" width="100" height="40" as="geometry" />
        </mxCell>
        <mxCell id="RNBmC7v_2YCIgV9TNYOe-32" style="edgeStyle=orthogonalEdgeStyle;rounded=0;orthogonalLoop=1;jettySize=auto;html=1;exitX=1;exitY=0.5;exitDx=0;exitDy=0;" edge="1" parent="RNBmC7v_2YCIgV9TNYOe-31">
          <mxGeometry relative="1" as="geometry">
            <mxPoint x="100" y="65" as="sourcePoint" />
            <mxPoint x="100" y="65" as="targetPoint" />
          </mxGeometry>
        </mxCell>
        <mxCell id="RNBmC7v_2YCIgV9TNYOe-33" value="item" style="swimlane;html=1;fontStyle=0;childLayout=stackLayout;horizontal=1;startSize=26;fillColor=#e0e0e0;horizontalStack=0;resizeParent=1;resizeLast=0;collapsible=1;marginBottom=0;swimlaneFillColor=#ffffff;align=center;rounded=1;shadow=0;comic=0;labelBackgroundColor=none;strokeWidth=1;fontFamily=Verdana;fontSize=12" vertex="1" parent="1">
          <mxGeometry x="380" y="385" width="100" height="40" as="geometry" />
        </mxCell>
        <mxCell id="RNBmC7v_2YCIgV9TNYOe-34" style="edgeStyle=orthogonalEdgeStyle;rounded=0;orthogonalLoop=1;jettySize=auto;html=1;exitX=1;exitY=0.5;exitDx=0;exitDy=0;" edge="1" parent="RNBmC7v_2YCIgV9TNYOe-33">
          <mxGeometry relative="1" as="geometry">
            <mxPoint x="100" y="65" as="sourcePoint" />
            <mxPoint x="100" y="65" as="targetPoint" />
          </mxGeometry>
        </mxCell>
        <mxCell id="RNBmC7v_2YCIgV9TNYOe-35" value="ingredient" style="swimlane;html=1;fontStyle=0;childLayout=stackLayout;horizontal=1;startSize=26;fillColor=#e0e0e0;horizontalStack=0;resizeParent=1;resizeLast=0;collapsible=1;marginBottom=0;swimlaneFillColor=#ffffff;align=center;rounded=1;shadow=0;comic=0;labelBackgroundColor=none;strokeWidth=1;fontFamily=Verdana;fontSize=12" vertex="1" parent="1">
          <mxGeometry x="380" y="440" width="100" height="40" as="geometry" />
        </mxCell>
        <mxCell id="RNBmC7v_2YCIgV9TNYOe-36" style="edgeStyle=orthogonalEdgeStyle;rounded=0;orthogonalLoop=1;jettySize=auto;html=1;exitX=1;exitY=0.5;exitDx=0;exitDy=0;" edge="1" parent="RNBmC7v_2YCIgV9TNYOe-35">
          <mxGeometry relative="1" as="geometry">
            <mxPoint x="100" y="65" as="sourcePoint" />
            <mxPoint x="100" y="65" as="targetPoint" />
          </mxGeometry>
        </mxCell>
        <mxCell id="RNBmC7v_2YCIgV9TNYOe-52" style="edgeStyle=orthogonalEdgeStyle;rounded=0;orthogonalLoop=1;jettySize=auto;html=1;exitX=1;exitY=0.5;exitDx=0;exitDy=0;entryX=0;entryY=0.5;entryDx=0;entryDy=0;" edge="1" parent="1" source="RNBmC7v_2YCIgV9TNYOe-39" target="RNBmC7v_2YCIgV9TNYOe-33">
          <mxGeometry relative="1" as="geometry">
            <mxPoint x="370" y="404.8717948717949" as="targetPoint" />
          </mxGeometry>
        </mxCell>
        <mxCell id="RNBmC7v_2YCIgV9TNYOe-54" style="edgeStyle=orthogonalEdgeStyle;rounded=0;orthogonalLoop=1;jettySize=auto;html=1;exitX=1;exitY=0.5;exitDx=0;exitDy=0;entryX=0;entryY=0.5;entryDx=0;entryDy=0;" edge="1" parent="1" source="RNBmC7v_2YCIgV9TNYOe-39" target="RNBmC7v_2YCIgV9TNYOe-31">
          <mxGeometry relative="1" as="geometry" />
        </mxCell>
        <mxCell id="RNBmC7v_2YCIgV9TNYOe-55" style="edgeStyle=orthogonalEdgeStyle;rounded=0;orthogonalLoop=1;jettySize=auto;html=1;exitX=1;exitY=0.5;exitDx=0;exitDy=0;entryX=0;entryY=0.5;entryDx=0;entryDy=0;" edge="1" parent="1" source="RNBmC7v_2YCIgV9TNYOe-39" target="RNBmC7v_2YCIgV9TNYOe-35">
          <mxGeometry relative="1" as="geometry" />
        </mxCell>
        <mxCell id="RNBmC7v_2YCIgV9TNYOe-39" value="Models" style="swimlane;html=1;fontStyle=0;childLayout=stackLayout;horizontal=1;startSize=26;fillColor=#e0e0e0;horizontalStack=0;resizeParent=1;resizeLast=0;collapsible=1;marginBottom=0;swimlaneFillColor=#ffffff;align=center;rounded=1;shadow=0;comic=0;labelBackgroundColor=none;strokeWidth=1;fontFamily=Verdana;fontSize=12" vertex="1" parent="1">
          <mxGeometry x="240" y="385" width="100" height="40" as="geometry" />
        </mxCell>
        <mxCell id="RNBmC7v_2YCIgV9TNYOe-40" style="edgeStyle=orthogonalEdgeStyle;rounded=0;orthogonalLoop=1;jettySize=auto;html=1;exitX=1;exitY=0.5;exitDx=0;exitDy=0;" edge="1" parent="RNBmC7v_2YCIgV9TNYOe-39">
          <mxGeometry relative="1" as="geometry">
            <mxPoint x="100" y="65" as="sourcePoint" />
            <mxPoint x="100" y="65" as="targetPoint" />
          </mxGeometry>
        </mxCell>
      </root>
    </mxGraphModel>
  </diagram>
</mxfile>
